<?xml version="1.0" standalone="no"?>
<!DOCTYPE svg PUBLIC "-//W3C//DTD SVG 20010904//EN"
 "http://www.w3.org/TR/2001/REC-SVG-20010904/DTD/svg10.dtd">
<svg version="1.0" xmlns="http://www.w3.org/2000/svg"
 width="177.000000pt" height="177.000000pt" viewBox="0 0 177.000000 177.000000"
 preserveAspectRatio="xMidYMid meet">
<metadata>
Created by potrace 1.14, written by Peter Selinger 2001-2017
</metadata>
<g transform="translate(0.000000,177.000000) scale(0.100000,-0.100000)"
fill="#000000" stroke="none">
<path d="M812 1749 c-74 -37 -111 -146 -68 -204 13 -18 15 -17 44 15 17 18 32
47 34 64 6 64 95 71 119 9 13 -35 -15 -77 -56 -81 -16 -2 -42 -17 -59 -34 -29
-29 -29 -31 -11 -44 30 -22 107 -18 146 9 78 51 96 163 37 229 -48 54 -121 69
-186 37z"/>
<path d="M494 1544 c-51 -18 -110 -75 -135 -129 -21 -45 -24 -126 -8 -176 31
-90 127 -160 221 -161 27 0 51 2 53 4 2 1 -7 28 -20 58 -17 41 -29 56 -46 58
-55 9 -99 63 -99 122 0 82 86 140 163 111 21 -8 30 -4 66 33 l42 43 -23 14
c-63 40 -144 48 -214 23z"/>
<path d="M727 1422 c-35 -35 -36 -40 -31 -87 4 -39 1 -56 -14 -79 -20 -28 -20
-29 1 -80 11 -28 22 -52 23 -54 7 -11 59 38 82 77 22 38 27 58 27 116 0 66
-24 145 -44 145 -4 0 -24 -17 -44 -38z"/>
<path d="M781 1090 c-24 -5 -46 -12 -49 -14 -2 -3 10 -40 27 -83 l31 -78 93 0
c78 0 100 -4 147 -26 216 -102 288 -367 149 -552 -138 -183 -397 -202 -557
-40 -108 110 -134 278 -65 419 25 51 94 127 137 151 18 10 18 14 -14 89 -18
44 -34 81 -36 83 -7 7 -90 -49 -135 -91 -178 -168 -221 -433 -106 -653 17 -33
61 -90 97 -126 242 -245 647 -206 837 79 201 304 59 708 -291 826 -59 20 -204
29 -265 16z"/>
</g>
</svg>
