<?xml version="1.0" standalone="no"?>
<!DOCTYPE svg PUBLIC "-//W3C//DTD SVG 20010904//EN"
 "http://www.w3.org/TR/2001/REC-SVG-20010904/DTD/svg10.dtd">
<svg version="1.0" xmlns="http://www.w3.org/2000/svg"
 width="260.000000pt" height="260.000000pt" viewBox="0 0 260.000000 260.000000"
 preserveAspectRatio="xMidYMid meet">
<metadata>
Created by potrace 1.14, written by Peter Selinger 2001-2017
</metadata>
<g transform="translate(0.000000,260.000000) scale(0.100000,-0.100000)"
fill="#000000" stroke="none">
<path d="M1199 2186 c-44 -22 -78 -72 -82 -117 -2 -34 12 -99 23 -99 11 0 65
57 66 70 1 6 2 17 3 25 0 8 10 24 20 34 22 22 66 20 90 -4 34 -33 2 -105 -47
-105 -15 0 -37 -13 -55 -32 -29 -29 -29 -32 -12 -45 11 -7 38 -13 62 -13 76 0
133 44 152 116 34 128 -102 233 -220 170z"/>
<path d="M884 1983 c-130 -44 -191 -205 -128 -331 42 -84 122 -134 219 -137
41 -1 46 10 24 55 -11 22 -19 43 -19 49 0 5 -19 16 -42 23 -104 35 -120 176
-24 222 38 18 64 20 98 7 20 -7 30 -3 66 31 23 21 40 43 37 48 -24 39 -160 58
-231 33z"/>
<path d="M1113 1858 c-32 -32 -40 -47 -33 -58 15 -24 11 -73 -8 -105 -18 -29
-18 -31 1 -80 12 -27 22 -52 23 -54 8 -10 56 34 80 74 35 61 42 143 17 209
-10 27 -23 51 -28 53 -6 2 -29 -16 -52 -39z"/>
<path d="M1171 1529 c-24 -5 -46 -11 -49 -13 -2 -3 10 -41 28 -85 l32 -80 60
5 c152 14 292 -66 360 -204 30 -61 33 -74 33 -162 -1 -83 -4 -102 -28 -151
-97 -200 -327 -270 -521 -160 -174 100 -230 338 -121 511 24 38 111 120 127
120 5 0 7 10 3 23 -6 22 -55 139 -61 146 -7 8 -93 -51 -141 -98 -65 -64 -115
-147 -142 -234 -28 -93 -24 -254 8 -339 60 -157 188 -282 338 -332 74 -25 91
-27 173 -28 151 0 283 55 390 162 102 103 149 212 156 360 7 162 -52 308 -170
422 -43 42 -142 99 -205 119 -72 23 -198 31 -270 18z"/>
</g>
</svg>
